<?xml version="1.0" encoding="iso-8859-1"?>
<svg id="Capa_1" enable-background="new 0 0 512 512" height="512" viewBox="0 0 512 512" width="512" xmlns="http://www.w3.org/2000/svg">
	<path  style="fill:#b7a182;" d="m256 75c-99.804 0-181 81.196-181 181s81.196 181 181 181 181-81.196 181-181-81.196-181-181-181zm-76 106h30v60h-30zm122 151c0-25.364-20.636-46-46-46s-46 20.636-46 46h-30c0-41.906 34.094-76 76-76s76 34.094 76 76zm30-91h-30v-60h30z"/>
<path style="fill:#b7a182;"  d="m437.02 74.98c-48.353-48.351-112.64-74.98-181.02-74.98s-132.667 26.629-181.02 74.98c-48.351 48.353-74.98 112.64-74.98 181.02 0 45.105 11.836 89.232 34.286 128.041l-34.286 127.959 127.959-34.286c38.809 22.45 82.936 34.286 128.041 34.286 68.38 0 132.667-26.629 181.02-74.98 48.351-48.353 74.98-112.64 74.98-181.02s-26.629-132.667-74.98-181.02zm-181.02 392.02c-116.346 0-211-94.654-211-211s94.654-211 211-211 211 94.654 211 211-94.654 211-211 211z"/></svg>